<?xml version="1.0" encoding="UTF-8"?>
<svg version="1.1" viewBox="0 0 158 46" xmlns="http://www.w3.org/2000/svg">
<title>Group</title>
<desc>Created with Sketch.</desc>
<g fill="none" fill-rule="evenodd">
<g transform="translate(-1)">
<g fill="#C5313B">
<path d="m1 2.659c-0.0092588-0.69808 0.26709-1.3696 0.765-1.859 0.49385-0.51666 1.1793-0.80619 1.894-0.8 0.69911-0.010081 1.3719 0.26633 1.862 0.765 0.50634 0.4849 0.78419 1.1612 0.765 1.862v12.731c0.0099094 1.4409 1.1851 2.6013 2.626 2.593 0.68514 0.010465 1.3457-0.25481 1.8334-0.73622 0.48761-0.48141 0.76133-1.1386 0.75964-1.8238v-12.698c-0.0072205-0.7136 0.28043-1.3985 0.795-1.893 0.49528-0.51819 1.1832-0.80786 1.9-0.8 0.69911-0.010081 1.3719 0.26633 1.862 0.765 0.50634 0.4849 0.78419 1.1612 0.765 1.862v12.731c-0.0096113 0.68907 0.26747 1.3512 0.765 1.828 0.48067 0.48802 1.1434 0.75302 1.828 0.731 0.69788 0.0036818 1.3683-0.27175 1.862-0.765 0.49207-0.48056 0.76813-1.1402 0.765-1.828v-12.631c-0.011396-0.69838 0.26317-1.3711 0.76-1.862 0.48466-0.50607 1.1605-0.7839 1.861-0.765 0.70766-0.0039922 1.3884 0.27083 1.895 0.765 0.5159 0.48108 0.80614 1.1566 0.8 1.862v12.7c0.042978 2.1058-0.80151 4.1327-2.327 5.585-1.465 1.5031-3.4864 2.3334-5.585 2.294-1.93 0.022401-3.7961-0.69093-5.219-1.995-1.4396 1.2995-3.3147 2.0108-5.254 1.993-2.1251 0.042974-4.1723-0.80004-5.651-2.327-1.5255-1.4523-2.37-3.4792-2.327-5.585v-12.699z"/>
<path d="m44.713 20.61c0.010081 0.69911-0.26633 1.3719-0.765 1.862-0.4849 0.50634-1.1612 0.78419-1.862 0.765h-5.251c-4.3626-0.018085-7.8945-3.5504-7.912-7.913-0.036078-2.1045 0.8073-4.1287 2.327-5.585 1.4593-1.4908 3.4651-2.3193 5.551-2.293 2.1085-0.034295 4.1394 0.79441 5.622 2.294 1.5255 1.4523 2.37 3.4792 2.327 5.585v5.286l-0.037-1e-3zm-5.29-5.252c-0.0099094-1.4409-1.1851-2.6013-2.626-2.593-0.69788-0.0036818-1.3683 0.27175-1.862 0.765-0.49207 0.48056-0.76813 1.1402-0.765 1.828-0.0036818 0.69788 0.27175 1.3683 0.765 1.862 0.48056 0.49207 1.1402 0.76813 1.828 0.765h2.626l0.034-2.627z" fill-rule="nonzero"/>
<path d="m61.933 20.577c0.010081 0.69911-0.26633 1.3719-0.765 1.862-0.4849 0.50634-1.1612 0.78419-1.862 0.765-0.8818 0.01179-1.7088-0.4266-2.194-1.163l-2.826-4.056h-2.759v2.626c0.010081 0.69911-0.26633 1.3719-0.765 1.862-0.4849 0.50634-1.1612 0.78419-1.862 0.765-0.69911 0.010081-1.3719-0.26633-1.862-0.765-0.50634-0.4849-0.78419-1.1612-0.765-1.862l2.127-15.823c-0.010081-0.69911 0.26633-1.3719 0.765-1.862 0.4849-0.50634 1.1612-0.78419 1.862-0.765 0.69911-0.010081 1.3719 0.26633 1.862 0.765 0.50634 0.4849 0.78419 1.1612 0.765 1.862l-1.3 7.945h1.6c0.96748 0.076512 1.8763-0.47158 2.26-1.363 0.266-0.831 0.5-1.662 0.765-2.493 0.35755-0.89825 1.2644-1.4533 2.227-1.363 0.69911-0.010081 1.3719 0.26633 1.862 0.765 0.50634 0.4849 0.78419 1.1612 0.765 1.862 0.044722 2.2451-0.91889 4.3921-2.626 5.851l2.161 3.058c0.37833 0.41782 0.58074 0.96557 0.565 1.529"/>
<path d="m79.252 15.358c0.044864 2.1063-0.7982 4.1343-2.323 5.588-1.46 1.5143-3.4817 2.3567-5.585 2.327-2.1058 0.042978-4.1327-0.80151-5.585-2.327-1.5143-1.46-2.3567-3.4817-2.327-5.585v-5.289c-0.010081-0.69911 0.26633-1.3719 0.765-1.862 0.4849-0.50634 1.1612-0.78419 1.862-0.765 0.69768-0.0040198 1.368 0.27136 1.8613 0.7647 0.49334 0.49334 0.76872 1.1636 0.7647 1.8613v5.252c-0.0031253 0.6878 0.27293 1.3474 0.765 1.828 0.47535 0.49969 1.1384 0.77718 1.828 0.765 1.4409-0.0099094 2.6013-1.1851 2.593-2.626v-5.185c-0.0111-0.69705 0.26266-1.3685 0.758-1.859 0.4849-0.50634 1.1612-0.78419 1.862-0.765 0.70766-0.0039922 1.3884 0.27083 1.895 0.765 0.5159 0.48108 0.80614 1.1566 0.8 1.862v5.252l0.066-2e-3z"/>
<path d="m80.748 2.659c-0.0087334-0.69837 0.26836-1.37 0.767-1.859 0.4849-0.50634 1.1612-0.78419 1.862-0.765 0.69808-0.0092588 1.3696 0.26709 1.859 0.765 0.50634 0.4849 0.78419 1.1612 0.765 1.862v12.729c0.0099094 1.4409 1.1851 2.6013 2.626 2.593 0.68514 0.010465 1.3457-0.25481 1.8334-0.73622 0.48761-0.48141 0.76133-1.1386 0.75964-1.8238v-12.731c-0.0072205-0.7136 0.28043-1.3985 0.795-1.893 0.49528-0.51819 1.1832-0.80786 1.9-0.8 0.69911-0.010081 1.3719 0.26633 1.862 0.765 0.50634 0.4849 0.78419 1.1612 0.765 1.862v12.731c-0.0065554 0.68182 0.25612 1.3387 0.731 1.828 0.48067 0.48802 1.1434 0.75302 1.828 0.731 0.69788 0.0036818 1.3683-0.27175 1.862-0.765 0.49207-0.48056 0.76812-1.1402 0.765-1.828v-12.631c-0.010081-0.69911 0.26634-1.3719 0.765-1.862 0.4849-0.50634 1.1612-0.78419 1.862-0.765 0.70766-0.0039922 1.3884 0.27083 1.895 0.765 0.5159 0.48108 0.80614 1.1566 0.8 1.862v12.7c0.042978 2.1058-0.80151 4.1327-2.327 5.585-1.4723 1.4923-3.4888 2.3206-5.585 2.294-1.9316 0.022877-3.7994-0.69125-5.223-1.997-3.1399 2.7702-7.8877 2.6391-10.87-0.3-1.5255-1.4523-2.37-3.4792-2.327-5.585v-12.731h0.03z"/>
<path d="m124.46 20.61c0.010081 0.69911-0.26634 1.3719-0.765 1.862-0.4849 0.50634-1.1612 0.78419-1.862 0.765h-5.252c-4.3622-0.018081-7.8939-3.5498-7.912-7.912-0.036078-2.1045 0.8073-4.1287 2.327-5.585 1.4591-1.4911 3.4649-2.3201 5.551-2.294 2.1071-0.033199 4.1364 0.79542 5.618 2.294 1.5255 1.4523 2.37 3.4792 2.327 5.585v5.286l-0.032-1e-3zm-5.29-5.252c-0.009909-1.4409-1.1851-2.6013-2.626-2.593-0.69788-0.0036818-1.3683 0.27175-1.862 0.765-0.49207 0.48056-0.76812 1.1402-0.765 1.828-0.003682 0.69788 0.27175 1.3683 0.765 1.862 0.48056 0.49207 1.1402 0.76813 1.828 0.765h2.626l0.034-2.627z" fill-rule="nonzero"/>
<path d="m141.65 20.577c0.010081 0.69911-0.26634 1.3719-0.765 1.862-0.4849 0.50634-1.1612 0.78419-1.862 0.765-0.87992 0.0040856-1.7035-0.43247-2.194-1.163l-2.826-4.056h-2.726v2.626c0.010081 0.69911-0.26634 1.3719-0.765 1.862-0.4849 0.50634-1.1612 0.78419-1.862 0.765-0.69911 0.010081-1.3719-0.26633-1.862-0.765-0.50634-0.4849-0.78419-1.1612-0.765-1.862l2.128-15.823c-0.010081-0.69911 0.26634-1.3719 0.765-1.862 0.4849-0.50634 1.1612-0.78419 1.862-0.765 0.69911-0.010081 1.3719 0.26633 1.862 0.765 0.50634 0.4849 0.78419 1.1612 0.765 1.862l-1.064 7.945h1.4c0.96748 0.076512 1.8763-0.47158 2.26-1.363 0.233-0.831 0.5-1.662 0.765-2.493 0.35754-0.89825 1.2644-1.4533 2.227-1.363 0.69911-0.010081 1.3719 0.26633 1.862 0.765 0.50634 0.4849 0.78419 1.1612 0.765 1.862 0.044721 2.2451-0.91889 4.3921-2.626 5.851l2.161 3.058c0.34609 0.43243 0.52372 0.97564 0.5 1.529"/>
<path d="m159 15.358c0.044864 2.1063-0.7982 4.1343-2.323 5.588-1.46 1.5143-3.4817 2.3567-5.585 2.327-2.1058 0.042978-4.1327-0.80151-5.585-2.327-1.5143-1.46-2.3567-3.4817-2.327-5.585v-5.289c-0.010081-0.69911 0.26634-1.3719 0.765-1.862 0.4849-0.50634 1.1612-0.78419 1.862-0.765 0.69911-0.010081 1.3719 0.26633 1.862 0.765 0.50634 0.4849 0.78419 1.1612 0.765 1.862v5.252c-0.003125 0.6878 0.27293 1.3474 0.765 1.828 0.47535 0.49969 1.1384 0.77718 1.828 0.765 1.4409-0.0099094 2.6013-1.1851 2.593-2.626v-5.186c-0.011364-0.6969 0.26203-1.3683 0.757-1.859 0.4849-0.50634 1.1612-0.78419 1.862-0.765 0.70766-0.0039922 1.3884 0.27083 1.895 0.765 0.5159 0.48108 0.80614 1.1566 0.8 1.862v5.252l0.066-2e-3z"/>
</g>
<path d="m4.392 42.192c-1.328 0-2.288-0.576-2.896-1.68l0.96-0.672c0.464 0.832 1.056 1.184 1.808 1.184 1.12 0 1.68-0.64 1.68-2.24v-7.28h1.344v7.408c0 1.808-0.848 3.28-2.896 3.28zm7.392 0c-1.296 0-2.272-0.816-2.272-2.208 0-1.696 1.456-2.544 4.768-2.912 0-0.992-0.32-1.952-1.6-1.952-0.896 0-1.712 0.416-2.32 0.832l-0.512-0.912c0.72-0.464 1.808-1.008 3.056-1.008 1.904 0 2.704 1.264 2.704 3.2v4.768h-1.088l-0.112-0.928h-0.048c-0.736 0.608-1.6 1.12-2.576 1.12zm0.384-1.056c0.752 0 1.36-0.368 2.112-1.04v-2.16c-2.592 0.32-3.488 0.96-3.488 1.952 0 0.88 0.608 1.248 1.376 1.248zm5.888 4.144v-11.056h1.088l0.112 0.896h0.048c0.704-0.592 1.568-1.088 2.48-1.088 2 0 3.072 1.552 3.072 3.968 0 2.64-1.584 4.192-3.36 4.192-0.72 0-1.44-0.336-2.16-0.896l0.032 1.36v2.624h-1.312zm3.216-4.192c1.28 0 2.224-1.168 2.224-3.088 0-1.712-0.576-2.864-2.048-2.864-0.656 0-1.312 0.368-2.08 1.056v4.08c0.704 0.592 1.392 0.816 1.904 0.816zm7.456 1.104c-1.296 0-2.272-0.816-2.272-2.208 0-1.696 1.456-2.544 4.768-2.912 0-0.992-0.32-1.952-1.6-1.952-0.896 0-1.712 0.416-2.32 0.832l-0.512-0.912c0.72-0.464 1.808-1.008 3.056-1.008 1.904 0 2.704 1.264 2.704 3.2v4.768h-1.088l-0.112-0.928h-0.048c-0.736 0.608-1.6 1.12-2.576 1.12zm0.384-1.056c0.752 0 1.36-0.368 2.112-1.04v-2.16c-2.592 0.32-3.488 0.96-3.488 1.952 0 0.88 0.608 1.248 1.376 1.248zm5.888 0.864v-7.776h1.088l0.112 1.12h0.048c0.736-0.736 1.536-1.312 2.608-1.312 1.632 0 2.368 1.056 2.368 3.04v4.928h-1.312v-4.752c0-1.456-0.448-2.08-1.472-2.08-0.8 0-1.344 0.416-2.128 1.2v5.632h-1.312zm11.904 0.192c-2.08 0-3.728-1.52-3.728-4.064s1.712-4.096 3.488-4.096c1.984 0 3.104 1.424 3.104 3.648 0 0.272-0.016 0.56-0.048 0.752h-5.248c0.096 1.648 1.104 2.704 2.592 2.704 0.736 0 1.36-0.24 1.936-0.608l0.464 0.864c-0.672 0.432-1.504 0.8-2.56 0.8zm-2.448-4.704h4.16c0-1.568-0.704-2.416-1.92-2.416-1.088 0-2.08 0.88-2.24 2.416zm9.264 4.704c-1.104 0-2.16-0.464-2.896-1.072l0.656-0.88c0.672 0.544 1.36 0.928 2.288 0.928 1.024 0 1.536-0.544 1.536-1.216 0-0.8-0.928-1.152-1.776-1.472-1.104-0.4-2.32-0.928-2.32-2.24 0-1.248 0.992-2.208 2.672-2.208 0.976 0 1.824 0.4 2.416 0.88l-0.624 0.832c-0.528-0.4-1.088-0.688-1.776-0.688-0.976 0-1.424 0.528-1.424 1.12 0 0.736 0.848 1.008 1.728 1.344 1.12 0.416 2.368 0.88 2.368 2.352 0 1.264-1.008 2.32-2.848 2.32zm7.824 0c-2.08 0-3.728-1.52-3.728-4.064s1.712-4.096 3.488-4.096c1.984 0 3.104 1.424 3.104 3.648 0 0.272-0.016 0.56-0.048 0.752h-5.248c0.096 1.648 1.104 2.704 2.592 2.704 0.736 0 1.36-0.24 1.936-0.608l0.464 0.864c-0.672 0.432-1.504 0.8-2.56 0.8zm-2.448-4.704h4.16c0-1.568-0.704-2.416-1.92-2.416-1.088 0-2.08 0.88-2.24 2.416zm13.472 4.704c-1.472 0-2.768-0.608-3.68-1.552l0.8-0.928c0.752 0.784 1.808 1.312 2.896 1.312 1.376 0 2.192-0.688 2.192-1.712 0-1.072-0.752-1.408-1.744-1.856l-1.504-0.656c-0.992-0.416-2.128-1.168-2.128-2.704 0-1.6 1.392-2.784 3.296-2.784 1.248 0 2.352 0.528 3.104 1.296l-0.72 0.864c-0.64-0.608-1.408-0.992-2.384-0.992-1.168 0-1.952 0.592-1.952 1.536 0 1.008 0.912 1.392 1.744 1.744l1.488 0.64c1.216 0.528 2.16 1.248 2.16 2.8 0 1.664-1.36 2.992-3.568 2.992zm5.504 3.088v-11.056h1.088l0.112 0.896h0.048c0.704-0.592 1.568-1.088 2.48-1.088 2 0 3.072 1.552 3.072 3.968 0 2.64-1.584 4.192-3.36 4.192-0.72 0-1.44-0.336-2.16-0.896l0.032 1.36v2.624h-1.312zm3.216-4.192c1.28 0 2.224-1.168 2.224-3.088 0-1.712-0.576-2.864-2.048-2.864-0.656 0-1.312 0.368-2.08 1.056v4.08c0.704 0.592 1.392 0.816 1.904 0.816zm8.816 1.104c-2.08 0-3.728-1.52-3.728-4.064s1.712-4.096 3.488-4.096c1.984 0 3.104 1.424 3.104 3.648 0 0.272-0.016 0.56-0.048 0.752h-5.248c0.096 1.648 1.104 2.704 2.592 2.704 0.736 0 1.36-0.24 1.936-0.608l0.464 0.864c-0.672 0.432-1.504 0.8-2.56 0.8zm-2.448-4.704h4.16c0-1.568-0.704-2.416-1.92-2.416-1.088 0-2.08 0.88-2.24 2.416zm9.024 4.704c-1.296 0-2.272-0.816-2.272-2.208 0-1.696 1.456-2.544 4.768-2.912 0-0.992-0.32-1.952-1.6-1.952-0.896 0-1.712 0.416-2.32 0.832l-0.512-0.912c0.72-0.464 1.808-1.008 3.056-1.008 1.904 0 2.704 1.264 2.704 3.2v4.768h-1.088l-0.112-0.928h-0.048c-0.736 0.608-1.6 1.12-2.576 1.12zm0.384-1.056c0.752 0 1.36-0.368 2.112-1.04v-2.16c-2.592 0.32-3.488 0.96-3.488 1.952 0 0.88 0.608 1.248 1.376 1.248zm5.888 0.864v-11.392h1.296v7.712h0.048l3.312-4.096h1.456l-2.608 3.12 2.96 4.656h-1.44l-2.272-3.744-1.456 1.696v2.048h-1.296zm7.92 0v-7.776h1.312v7.776h-1.312zm0.672-9.376c-0.512 0-0.912-0.352-0.912-0.848 0-0.512 0.4-0.848 0.912-0.848s0.912 0.336 0.912 0.848c0 0.496-0.4 0.848-0.912 0.848zm3.264 9.376v-7.776h1.088l0.112 1.12h0.048c0.736-0.736 1.536-1.312 2.608-1.312 1.632 0 2.368 1.056 2.368 3.04v4.928h-1.312v-4.752c0-1.456-0.448-2.08-1.472-2.08-0.8 0-1.344 0.416-2.128 1.2v5.632h-1.312zm11.376 3.584c-1.904 0-3.216-0.752-3.216-2.096 0-0.656 0.432-1.28 1.136-1.76v-0.064c-0.384-0.24-0.688-0.656-0.688-1.264 0-0.656 0.448-1.168 0.848-1.44v-0.064c-0.512-0.416-1.008-1.168-1.008-2.096 0-1.696 1.344-2.768 2.928-2.768 0.432 0 0.816 0.08 1.104 0.192h2.704v1.008h-1.6c0.368 0.352 0.64 0.944 0.64 1.6 0 1.664-1.264 2.704-2.848 2.704-0.384 0-0.816-0.096-1.168-0.272-0.272 0.24-0.496 0.496-0.496 0.928 0 0.496 0.32 0.848 1.376 0.848h1.504c1.808 0 2.72 0.56 2.72 1.856 0 1.44-1.52 2.688-3.936 2.688zm0-6.928c0.896 0 1.648-0.72 1.648-1.856s-0.736-1.808-1.648-1.808-1.648 0.672-1.648 1.808 0.752 1.856 1.648 1.856zm0.192 6.016c1.488 0 2.464-0.768 2.464-1.584 0-0.72-0.56-0.96-1.568-0.96h-1.344c-0.304 0-0.672-0.032-1.008-0.128-0.56 0.4-0.8 0.864-0.8 1.312 0 0.832 0.848 1.36 2.256 1.36zm10.528-2.48c-1.328 0-2.288-0.576-2.896-1.68l0.96-0.672c0.464 0.832 1.056 1.184 1.808 1.184 1.12 0 1.68-0.64 1.68-2.24v-7.28h1.344v7.408c0 1.808-0.848 3.28-2.896 3.28zm8.624 0c-1.904 0-3.6-1.488-3.6-4.064 0-2.608 1.696-4.096 3.6-4.096s3.6 1.488 3.6 4.096c0 2.576-1.696 4.064-3.6 4.064zm0-1.088c1.344 0 2.24-1.2 2.24-2.976 0-1.792-0.896-3.008-2.24-3.008-1.328 0-2.24 1.216-2.24 3.008 0 1.776 0.912 2.976 2.24 2.976zm9.088 1.088c-0.72 0-1.536-0.368-2.224-0.992h-0.048l-0.112 0.8h-1.056v-11.392h1.312v3.104l-0.032 1.408c0.704-0.624 1.568-1.088 2.432-1.088 2.016 0 3.088 1.552 3.088 3.952 0 2.656-1.584 4.208-3.36 4.208zm-0.224-1.104c1.28 0 2.224-1.168 2.224-3.088 0-1.712-0.576-2.864-2.048-2.864-0.656 0-1.344 0.368-2.08 1.056v4.08c0.688 0.592 1.392 0.816 1.904 0.816z" fill="#364444"/>
</g>
</g>
</svg>
